Normalized EMG Linear Envelopes
nRows=127
nColumns=4

endheader
time	 med_gas_r	  soleus_r	 tib_ant_r	
2.79133	  0.075853	  0.063083	  0.020458	
2.8629	  0.070322	  0.062073	  0.020978	
2.93448	  0.067854	  0.059170	  0.021803	
3.00605	  0.068610	  0.054381	  0.022767	
3.07762	  0.071593	  0.050263	  0.023180	
3.14919	  0.075998	  0.048320	  0.022443	
3.22077	  0.080673	  0.049234	  0.021023	
3.29234	  0.085092	  0.050925	  0.019989	
3.36391	  0.088460	  0.052282	  0.019303	
3.43548	  0.089606	  0.054531	  0.018993	
3.50706	  0.087869	  0.056981	  0.019468	
3.57863	  0.086305	  0.059121	  0.020477	
3.6502	  0.083797	  0.063254	  0.022041	
3.72177	  0.080311	  0.068459	  0.024280	
3.79335	  0.077809	  0.070400	  0.025941	
3.86492	  0.077298	  0.067179	  0.025301	
3.93649	  0.079225	  0.063295	  0.023363	
4.00806	  0.084186	  0.062454	  0.021589	
4.07964	  0.091437	  0.066285	  0.020924	
4.15121	  0.099583	  0.073478	  0.021090	
4.22278	  0.101692	  0.077980	  0.020997	
4.29435	  0.097078	  0.076667	  0.020143	
4.36593	  0.090061	  0.073489	  0.019607	
4.4375	  0.083864	  0.069354	  0.020213	
4.50907	  0.081448	  0.066339	  0.021777	
4.58065	  0.083008	  0.065579	  0.023128	
4.65222	  0.085590	  0.067022	  0.023601	
4.72379	  0.086935	  0.066050	  0.023320	
4.79536	  0.089525	  0.061786	  0.022425	
4.86694	  0.091472	  0.056336	  0.021967	
4.93851	  0.087717	  0.050215	  0.022335	
5.01008	  0.076691	  0.043329	  0.022957	
5.08165	  0.066193	  0.039089	  0.023506	
5.15323	  0.081380	  0.048564	  0.026506	
5.2248	  0.156784	  0.091737	  0.036730	
5.29637	  0.312953	  0.187269	  0.057945	
5.36794	  0.515072	  0.321726	  0.085988	
5.43952	  0.641452	  0.426428	  0.104572	
5.51109	  0.637485	  0.458621	  0.106425	
5.58266	  0.566912	  0.434418	  0.098579	
5.65423	  0.496481	  0.391289	  0.092446	
5.72581	  0.451408	  0.353865	  0.089802	
5.79738	  0.434282	  0.333940	  0.089319	
5.86895	  0.424069	  0.330035	  0.090336	
5.94052	  0.429478	  0.345872	  0.092061	
6.0121	  0.458352	  0.371556	  0.092579	
6.08367	  0.513749	  0.404998	  0.093865	
6.15524	  0.577022	  0.442030	  0.098738	
6.22681	  0.611614	  0.469550	  0.104180	
6.29839	  0.617860	  0.487657	  0.107751	
6.36996	  0.611270	  0.489853	  0.110961	
6.44153	  0.612756	  0.497027	  0.112560	
6.5131	  0.621947	  0.509654	  0.112898	
6.58468	  0.635030	  0.515009	  0.112535	
6.65625	  0.649925	  0.513526	  0.113389	
6.72782	  0.653110	  0.518371	  0.114716	
6.7994	  0.615940	  0.517554	  0.113165	
6.87097	  0.571082	  0.499601	  0.110629	
6.94254	  0.560297	  0.486193	  0.110898	
7.01411	  0.577470	  0.497628	  0.113841	
7.08569	  0.601087	  0.510515	  0.117704	
7.15726	  0.623190	  0.503195	  0.118633	
7.22883	  0.626535	  0.485156	  0.115517	
7.3004	  0.603751	  0.452792	  0.107062	
7.37198	  0.568944	  0.418910	  0.096530	
7.44355	  0.537113	  0.407579	  0.088889	
7.51512	  0.522068	  0.416943	  0.085475	
7.58669	  0.510646	  0.434712	  0.085847	
7.65827	  0.513632	  0.461164	  0.092014	
7.72984	  0.529620	  0.492445	  0.100611	
7.80141	  0.540078	  0.507114	  0.107974	
7.87298	  0.542680	  0.499918	  0.112038	
7.94456	  0.541752	  0.489948	  0.112302	
8.01613	  0.538797	  0.485962	  0.112412	
8.0877	  0.534189	  0.495442	  0.111082	
8.15927	  0.530649	  0.502353	  0.105958	
8.23085	  0.523782	  0.503486	  0.100402	
8.30242	  0.510670	  0.501949	  0.097564	
8.37399	  0.492546	  0.482398	  0.096192	
8.44556	  0.483974	  0.461925	  0.097085	
8.51714	  0.491551	  0.450525	  0.098970	
8.58871	  0.502005	  0.450484	  0.100011	
8.66028	  0.520638	  0.456770	  0.099956	
8.73185	  0.548524	  0.470787	  0.100493	
8.80343	  0.573354	  0.488071	  0.103757	
8.875	  0.590368	  0.498442	  0.109595	
8.94657	  0.609182	  0.496639	  0.114900	
9.01815	  0.617044	  0.475734	  0.117312	
9.08972	  0.610214	  0.452252	  0.116586	
9.16129	  0.591785	  0.431299	  0.112348	
9.23286	  0.566026	  0.405059	  0.109024	
9.30444	  0.550519	  0.374229	  0.107856	
9.37601	  0.550689	  0.351556	  0.105061	
9.44758	  0.578276	  0.349084	  0.100992	
9.51915	  0.602880	  0.355535	  0.097718	
9.59073	  0.593327	  0.360094	  0.097096	
9.6623	  0.551510	  0.380511	  0.100877	
9.73387	  0.532276	  0.430802	  0.108348	
9.80544	  0.555961	  0.484258	  0.115104	
9.87702	  0.594092	  0.529896	  0.118573	
9.94859	  0.609800	  0.553957	  0.118138	
10.0202	  0.610355	  0.549162	  0.113280	
10.0917	  0.588410	  0.507129	  0.104008	
10.1633	  0.503285	  0.416576	  0.088377	
10.2349	  0.348266	  0.281998	  0.066547	
10.3065	  0.200142	  0.168896	  0.048266	
10.378	  0.112351	  0.103910	  0.038204	
10.4496	  0.076878	  0.071712	  0.035139	
10.5212	  0.068402	  0.061332	  0.036832	
10.5927	  0.071799	  0.061295	  0.039314	
10.6643	  0.079631	  0.063763	  0.036957	
10.7359	  0.087242	  0.067854	  0.032130	
10.8075	  0.093610	  0.070963	  0.028201	
10.879	  0.099222	  0.070988	  0.026503	
10.9506	  0.103189	  0.070319	  0.026574	
11.0222	  0.106892	  0.069881	  0.027080	
11.0937	  0.110387	  0.068803	  0.027431	
11.1653	  0.110800	  0.069046	  0.027344	
11.2369	  0.106195	  0.070941	  0.026748	
11.3085	  0.102239	  0.073916	  0.025613	
11.38	  0.099203	  0.076946	  0.025015	
11.4516	  0.095042	  0.078918	  0.025934	
11.5232	  0.086690	  0.078661	  0.027501	
11.5948	  0.078959	  0.074148	  0.028547	
11.6663	  0.078129	  0.068033	  0.028193	
11.7379	  0.082545	  0.064250	  0.025594	
11.8095	  0.086463	  0.062347	  0.022682	
